@startuml Reliant_Notifications_v4
skinparam packageStyle rectangle
skinparam classAttributeIconSize 0
skinparam linetype ortho
skinparam nodesep 40
skinparam ranksep 60
hide empty members



package "Notifications" #EDE7F6 {

    package "infrastructure" {
        class MailchimpNotificationDeliveryAdapter <<Adapter>>
        class MailchimpNewsletterAdapter <<Adapter>>
        NotificationDeliveryPort <|.. MailchimpNotificationDeliveryAdapter
        NewsletterPort <|.. MailchimpNewsletterAdapter

        interface JpaAlertRepository <<Spring Data>>
        interface JpaNotificationPreferenceRepository <<Spring Data>>
        interface JpaNewsletterSubscriptionRepository <<Spring Data>>
        AlertRepository <|-- JpaAlertRepository
        NotificationPreferenceRepository <|-- JpaNotificationPreferenceRepository
        NewsletterSubscriptionRepository <|-- JpaNewsletterSubscriptionRepository
    }


}

ParameterOutOfRangeIntegrationEvent ..> ntHandler : consumedBy
UnassignedSessionOpenedIntegrationEvent ..> ntHandler : consumedBy
RecipeMismatchIntegrationEvent ..> ntHandler : consumedBy
FaultCaseOpenedIntegrationEvent ..> ntHandler : consumedBy
RecurringFaultPatternIntegrationEvent ..> ntHandler : consumedBy
PrematureFailureDetectedIntegrationEvent ..> ntHandler : consumedBy
AuditableAbstractAggregateRoot <|-- Alert
AuditableAbstractAggregateRoot <|-- NotificationPreference
AuditableAbstractAggregateRoot <|-- NewsletterSubscription

@enduml
